<?xml version="1.0" encoding="UTF-8"?>
<!DOCTYPE svg PUBLIC "-//W3C//DTD SVG Tiny 1.2//EN" 
  "http://www.w3.org/Graphics/SVG/1.2/DTD/svg12-tiny.dtd">
<svg xmlns="http://www.w3.org/2000/svg" baseProfile="tiny-ps" version="1.2" width="573px" height="571px" style="shape-rendering:geometricPrecision; text-rendering:geometricPrecision; image-rendering:optimizeQuality; fill-rule:evenodd; clip-rule:evenodd" xmlns:xlink="http://www.w3.org/1999/xlink"><title>American Benefits Company</title>
<g><path style="opacity:1" fill="#fefefe" d="M -0.5,-0.5 C 190.5,-0.5 381.5,-0.5 572.5,-0.5C 572.5,189.833 572.5,380.167 572.5,570.5C 381.5,570.5 190.5,570.5 -0.5,570.5C -0.5,380.167 -0.5,189.833 -0.5,-0.5 Z"/></g>
<g><path style="opacity:1" fill="#672520" d="M 289.5,63.5 C 291.323,69.6098 292.657,75.9431 293.5,82.5C 291.165,76.4978 289.832,70.1644 289.5,63.5 Z"/></g>
<g><path style="opacity:1" fill="#601614" d="M 296.5,98.5 C 297.99,102.942 298.99,107.609 299.5,112.5C 297.498,108.167 296.498,103.5 296.5,98.5 Z"/></g>
<g><path style="opacity:1" fill="#6f2a26" d="M 304.5,137.5 C 306.58,144.238 307.913,151.238 308.5,158.5C 306.42,151.762 305.087,144.762 304.5,137.5 Z"/></g>
<g><path style="opacity:1" fill="#662320" d="M 308.5,159.5 C 310.835,165.502 312.168,171.836 312.5,178.5C 310.645,172.399 309.311,166.066 308.5,159.5 Z"/></g>
<g><path style="opacity:1" fill="#9b2820" d="M 289.5,63.5 C 289.832,70.1644 291.165,76.4978 293.5,82.5C 295.008,87.7077 296.008,93.0411 296.5,98.5C 296.498,103.5 297.498,108.167 299.5,112.5C 301.701,120.7 303.367,129.033 304.5,137.5C 305.087,144.762 306.42,151.762 308.5,158.5C 308.5,158.833 308.5,159.167 308.5,159.5C 309.311,166.066 310.645,172.399 312.5,178.5C 317.561,201.972 322.561,225.472 327.5,249C 399.371,262.979 471.371,276.312 543.5,289C 471.268,302.771 398.934,315.938 326.5,328.5C 312.829,396.187 298.996,463.853 285,531.5C 271.983,463.579 258.15,395.913 243.5,328.5C 171.597,314.918 99.5965,301.751 27.5,289C 99.7285,275.656 172.062,262.489 244.5,249.5C 258.063,180.186 271.563,110.853 285,41.5C 286.824,48.7802 288.324,56.1136 289.5,63.5 Z"/></g>
</svg>
